<svg width="50" height="46" viewBox="0 0 50 46" fill="none" xmlns="http://www.w3.org/2000/svg">
<path d="M40.5475 2.36031C42.18 3.64031 43.305 5.70781 43.765 7.87281C43.8207 7.89044 43.875 7.91216 43.9275 7.93781L49.04 10.3028C49.3258 10.434 49.568 10.6443 49.7381 10.9088C49.9082 11.1732 49.9991 11.4809 50 11.7953V42.7128C49.9982 42.9696 49.9369 43.2225 49.8209 43.4517C49.7049 43.6809 49.5374 43.88 49.3315 44.0336C49.1257 44.1871 48.887 44.2909 48.6343 44.3367C48.3816 44.3826 48.1217 44.3693 47.875 44.2978L33.7025 40.2978L16.8525 44.9428C16.5485 45.0263 16.2271 45.0228 15.925 44.9328L1.185 40.5453C0.844302 40.4452 0.544974 40.2379 0.331488 39.9542C0.118002 39.6704 0.00174915 39.3254 0 38.9703L0 7.49781C0 6.39781 1.07 5.60781 2.1375 5.91781L16.3925 10.0703L23.6375 7.85281C23.7372 7.82337 23.8392 7.80246 23.9425 7.79031C24.2225 6.15031 25.005 4.57531 26.3175 3.04031C27.875 1.21531 30.6075 0.145307 33.27 0.0178073C36.0325 -0.114693 38.1425 0.475307 40.545 2.35781L40.5475 2.36031ZM3.3325 9.70531V37.7428L15.5075 41.3653V13.2478L3.3325 9.70531ZM23.855 11.2403L18.84 12.7728V40.9703L31.5025 37.4853V29.2478C31.5025 28.3378 32.25 27.6003 33.17 27.6003C34.09 27.6003 34.835 28.3378 34.835 29.2503V37.1928L46.6675 40.5303V12.8428L43.8675 11.5428C43.82 11.8178 43.76 12.0878 43.685 12.3503C43.1414 14.2672 42.2294 16.0598 41 17.6278L34.8075 25.3603C34.6445 25.5636 34.4362 25.7261 34.1993 25.8348C33.9625 25.9435 33.7035 25.9954 33.4431 25.9864C33.1826 25.9774 32.9278 25.9078 32.699 25.783C32.4702 25.6583 32.2737 25.4819 32.125 25.2678L26.3375 16.8853C25.3825 15.5503 24.7125 14.3603 24.335 13.2953C24.098 12.6306 23.937 11.9412 23.855 11.2403ZM33.43 3.31281C31.615 3.40031 29.75 4.13031 28.8625 5.16781C27.795 6.41781 27.27 7.58781 27.165 8.77281C27.04 10.2003 27.125 11.2078 27.48 12.2053C27.7425 12.9428 28.265 13.8778 29.0725 15.0053L33.6 21.5603L38.375 15.5978C39.3383 14.3667 40.0525 12.9596 40.4775 11.4553C41.0775 9.35531 40.1725 6.27031 38.4775 4.94531C36.74 3.58281 35.4275 3.21531 33.4325 3.31281H33.43ZM33.775 5.05531C36.535 5.05531 38.775 7.26781 38.775 9.99781C38.7714 10.6507 38.6392 11.2965 38.3859 11.8982C38.1327 12.5 37.7633 13.046 37.299 13.505C36.8347 13.964 36.2845 14.327 35.6798 14.5733C35.0751 14.8195 34.4279 14.9443 33.775 14.9403C31.015 14.9403 28.775 12.7278 28.775 9.99781C28.775 7.26781 31.015 5.05531 33.775 5.05531ZM33.775 8.35031C33.5573 8.34899 33.3415 8.39056 33.1399 8.47264C32.9383 8.55472 32.7549 8.67571 32.6 8.8287C32.4452 8.98168 32.322 9.16367 32.2375 9.36427C32.153 9.56486 32.1088 9.78014 32.1075 9.99781C32.1075 10.9078 32.855 11.6453 33.775 11.6453C33.9927 11.6463 34.2084 11.6044 34.4099 11.522C34.6113 11.4396 34.7946 11.3184 34.9492 11.1651C35.1038 11.0119 35.2268 10.8298 35.311 10.629C35.3952 10.4283 35.439 10.213 35.44 9.99531C35.4367 9.55658 35.2596 9.13706 34.9475 8.8287C34.6354 8.52034 34.2137 8.34831 33.775 8.35031Z" fill="#84B947"/>
</svg>
